# OBJ generated by ONSHAPE BY PTC INC, 1.208 Units = meters
mtllib pool_wa.mtl
g Part 1
v 0 4 5 
v -6.5 4 5 
v -4.06214 4 0 
v 6.5 4 5 
v 3.16422 4 0 
v -1.76206 4 0 
v 1.81595 4 0 
v -4.11602 4 0 
v 0 4 0 
v -6.5 4 0 
v 6.5 4 0 
v -6.5 2.90459 0 
v -6.5 2.99213 0 
v -6.5 1.1801 0 
v -6.5 -4 5 
v -6.5 -1.21257 0 
v -6.5 -1.9467 0 
v -6.5 -4 0 
v -4.06214 -4 0 
v -4.11602 -4 0 
v 0 -4 5 
v -1.76206 -4 0 
v 3.16422 -4 0 
v 1.81595 -4 0 
v 6.5 -4 5 
v 6.5 -4 0 
v 0 -4 0 
v 6.5 -3 1.7 
v 6.5 -1.21257 0 
v 6.5 -1.9467 0 
v 6.5 3 1.7 
v 6.5 1.1801 0 
v 6.5 2.90459 0 
v 6.5 3 3.5 
v 6.5 2.99213 0 
v 6.5 -3 3.5 
v 7 -3 1.7 
v 7 -3 3.5 
v 7 3 3.5 
v 7 3 1.7 
v 7 4.5 5 
v 7 -4.5 5 
v 7 -4.5 -1 
v 7 4.5 -1 
v 0 4.5 5 
v -7 4.5 5 
v -7 -4.5 5 
v 0 -4.5 5 
v 0 4.5 -1 
v -7 4.5 -1 
v -7 -4.5 -1 
v 0 -4.5 -1 
v -4.02412 -2.03267 0 
v -3.02412 -2.03267 0 
v -4.02412 -3.03267 0 
v -3.02412 -3.03267 0 
v -0.5 -1.96827 0 
v 0.5 -1.96827 0 
v -0.5 -2.96827 0 
v 0.5 -2.96827 0 
v -0.5 0.5 0 
v 0.5 0.5 0 
v -0.5 -0.5 0 
v 0.5 -0.5 0 
v 3.19655 0.5 0 
v 4.19655 0.5 0 
v 3.19655 -0.5 0 
v 4.19655 -0.5 0 
v 4.13189 2.90459 0 
v 4.13189 2.03526 0 
v 3.13189 2.03526 0 
v 3.16422 2.03526 0 
v 3.13189 2.90459 0 
v 3.13189 2.99213 0 
v 3.13189 3.03526 0 
v 4.13189 3.03526 0 
v 3.16422 3.03526 0 
v 3.34743 -2.92514 0 
v 4.34743 -2.92514 0 
v 4.34743 -1.9467 0 
v 3.34743 -1.92514 0 
v 4.34743 -1.92514 0 
v 3.34743 -1.9467 0 
v -0.5 1.94899 0 
v 0.5 1.94899 0 
v 0.5 2.90459 0 
v -0.5 2.94899 0 
v 0.5 2.94899 0 
v -0.5 2.90459 0 
v -4.10015 0.5 0 
v -4.10015 -0.5 0 
v -4.06214 -0.5 0 
v -3.10015 -0.5 0 
v -3.10015 0.5 0 
v -4.06214 0.5 0 
v -4.06214 1.86019 0 
v -4.13189 2.86019 0 
v -4.13189 1.86019 0 
v -4.11602 1.86019 0 
v -4.11602 2.86019 0 
v -4.06214 2.86019 0 
v -3.13189 1.86019 0 
v -3.13189 2.86019 0 
v 4.13189 2.99213 0 
v -4.11602 -1.9467 0 
v -4.06214 -1.9467 0 
v -1.76206 -1.9467 0 
v 1.81595 -1.9467 0 
v 3.16422 -1.9467 0 
v -4.11602 -1.21257 0 
v -4.06214 -1.21257 0 
v -1.76206 -1.21257 0 
v 1.81595 -1.21257 0 
v 3.16422 -1.21257 0 
v -4.11602 1.1801 0 
v -1.76206 1.1801 0 
v 1.81595 1.1801 0 
v 3.16422 1.1801 0 
v -4.11602 2.90459 0 
v -4.11602 2.99213 0 
v -4.06214 2.90459 0 
v -4.06214 2.99213 0 
v -1.76206 2.90459 0 
v -1.76206 2.99213 0 
v 1.81595 2.99213 0 
v 1.81595 2.90459 0 
v -4.06214 1.1801 0 
v -3.13189 1.86019 0.002 
v -4.13189 1.86019 0.002 
v -3.13189 2.86019 0.002 
v -4.13189 2.86019 0.002 
v -3.10015 -0.5 0.002 
v -4.10015 -0.5 0.002 
v -3.10015 0.5 0.002 
v -4.10015 0.5 0.002 
v -0.5 -2.96827 0.002 
v 0.5 -2.96827 0.002 
v 0.5 -1.96827 0.002 
v -0.5 -1.96827 0.002 
v -0.5 1.94899 0.002 
v 0.5 1.94899 0.002 
v 0.5 2.94899 0.002 
v -0.5 2.94899 0.002 
v -0.5 -0.5 0.002 
v 0.5 -0.5 0.002 
v 0.5 0.5 0.002 
v -0.5 0.5 0.002 
v -4.02412 -3.03267 0.002 
v -3.02412 -3.03267 0.002 
v -3.02412 -2.03267 0.002 
v -4.02412 -2.03267 0.002 
v 3.34743 -2.92514 0.002 
v 4.34743 -2.92514 0.002 
v 4.34743 -1.92514 0.002 
v 3.34743 -1.92514 0.002 
v 3.19655 -0.5 0.002 
v 4.19655 -0.5 0.002 
v 4.19655 0.5 0.002 
v 3.19655 0.5 0.002 
v 4.13189 2.03526 0.002 
v 3.13189 2.03526 0.002 
v 4.13189 3.03526 0.002 
v 3.13189 3.03526 0.002 
vn 1.36643e-16 -1 0 
vn 1 0 0 
vn -1.36643e-16 1 0 
vn -1 0 0 
vn 0 0 -1 
vn 0 0 1 
vn 0 -1 0 
vn 1 0 0 
vn 0 0 1 
vn 0 1 0 
vn -1 0 0 
vn 0 -1 0 
vn 0 0 -1 
vn 0 0 1 
vn 0 -1 0 
vn 1 0 0 
vn -4.44089e-16 1 0 
vn -1 0 0 
vn 0 0 1 
vn -5.55112e-17 -1 0 
vn 1 0 0 
vn 1.66533e-16 1 0 
vn -1 0 0 
vn 0 0 1 
vn 0 -1 0 
vn 1 -2.77556e-16 0 
vn 2.22045e-16 1 0 
vn -1 3.33067e-16 0 
vn 0 0 1 
vn 0 -1 0 
vn 1 -3.33067e-16 0 
vn 0 1 0 
vn -1 3.33067e-16 0 
vn 0 0 1 
vn -1.11022e-16 -1 0 
vn 1 -2.77556e-16 0 
vn 1.11022e-16 1 0 
vn -1 3.33067e-16 0 
vn 0 0 1 
vn 0 -1 0 
vn 1 0 0 
vn 0 1 0 
vn -1 0 0 
vn 0 0 1 
vn 0 -1 0 
vn 1 0 0 
vn 2.22045e-16 1 0 
vn -1 0 0 
vn 0 0 1 
vn -1.11022e-16 -1 0 
vn 1 0 0 
vn 1.11022e-16 1 0 
vn -1 0 0 
vn 0 0 1 
vn 0 -1 0 
vn 1 0 0 
vn 0 1 0 
vn -1 0 0 
vn 0 0 1 
usemtl 0.615686_0.811765_0.929412_0.000000_0.000000
o mesh0
f 1//1 2//1 3//1 
f 4//1 1//1 5//1 
f 3//1 6//1 1//1 
f 1//1 7//1 5//1 
f 2//1 8//1 3//1 
f 1//1 9//1 7//1 
f 2//1 10//1 8//1 
f 6//1 9//1 1//1 
f 5//1 11//1 4//1 
o mesh1
f 2//2 12//2 13//2 
f 2//2 14//2 12//2 
f 15//2 16//2 14//2 
f 14//2 2//2 15//2 
f 15//2 17//2 16//2 
f 15//2 18//2 17//2 
f 13//2 10//2 2//2 
o mesh2
f 15//3 19//3 20//3 
f 21//3 22//3 19//3 
f 19//3 15//3 21//3 
f 21//3 23//3 24//3 
f 25//3 26//3 23//3 
f 21//3 27//3 22//3 
f 23//3 21//3 25//3 
f 24//3 27//3 21//3 
f 20//3 18//3 15//3 
o mesh3
f 28//4 29//4 30//4 
f 28//4 31//4 32//4 
f 32//4 29//4 28//4 
f 31//4 33//4 32//4 
f 25//4 4//4 34//4 
f 4//4 11//4 31//4 
f 31//4 35//4 33//4 
f 31//4 34//4 4//4 
f 31//4 11//4 35//4 
f 30//4 26//4 28//4 
f 25//4 36//4 28//4 
f 28//4 26//4 25//4 
f 34//4 36//4 25//4 
o mesh4
f 37//3 28//3 36//3 
f 36//3 38//3 37//3 
o mesh5
f 36//5 34//5 39//5 
f 39//5 38//5 36//5 
o mesh6
f 40//6 31//6 28//6 
f 28//6 37//6 40//6 
o mesh7
f 34//7 31//7 40//7 
f 40//7 39//7 34//7 
o mesh8
f 41//8 39//8 40//8 
f 41//8 42//8 38//8 
f 42//8 43//8 37//8 
f 43//8 44//8 40//8 
f 38//8 39//8 41//8 
f 40//8 37//8 43//8 
f 37//8 38//8 42//8 
f 40//8 44//8 41//8 
o mesh9
f 45//9 1//9 4//9 
f 45//9 46//9 2//9 
f 2//9 1//9 45//9 
f 46//9 47//9 15//9 
f 48//9 42//9 25//9 
f 48//9 21//9 15//9 
f 15//9 2//9 46//9 
f 15//9 47//9 48//9 
f 25//9 21//9 48//9 
f 42//9 41//9 4//9 
f 4//9 25//9 42//9 
f 4//9 41//9 45//9 
o mesh10
f 46//10 45//10 49//10 
f 44//10 49//10 45//10 
f 45//10 41//10 44//10 
f 49//10 50//10 46//10 
o mesh11
f 47//11 46//11 50//11 
f 50//11 51//11 47//11 
o mesh12
f 42//12 48//12 52//12 
f 51//12 52//12 48//12 
f 48//12 47//12 51//12 
f 52//12 43//12 42//12 
o mesh13
f 43//13 52//13 49//13 
f 50//13 49//13 52//13 
f 52//13 51//13 50//13 
f 49//13 44//13 43//13 
o mesh14
f 18//14 20//14 105//14 
f 20//14 19//14 106//14 
f 106//14 53//14 54//14 
f 106//14 19//14 55//14 
f 55//14 53//14 106//14 
f 19//14 22//14 56//14 
f 56//14 55//14 19//14 
f 107//14 54//14 56//14 
f 56//14 22//14 107//14 
f 107//14 57//14 58//14 
f 107//14 22//14 59//14 
f 27//14 60//14 59//14 
f 59//14 57//14 107//14 
f 59//14 22//14 27//14 
f 27//14 24//14 60//14 
f 108//14 58//14 60//14 
f 60//14 24//14 108//14 
f 24//14 23//14 109//14 
f 17//14 105//14 110//14 
f 105//14 106//14 111//14 
f 106//14 107//14 112//14 
f 107//14 108//14 113//14 
f 108//14 109//14 114//14 
f 16//14 110//14 115//14 
f 116//14 61//14 62//14 
f 116//14 112//14 63//14 
f 63//14 61//14 116//14 
f 112//14 113//14 64//14 
f 64//14 63//14 112//14 
f 117//14 62//14 64//14 
f 64//14 113//14 117//14 
f 113//14 114//14 118//14 
f 118//14 65//14 66//14 
f 118//14 114//14 67//14 
f 67//14 65//14 118//14 
f 114//14 29//14 68//14 
f 68//14 67//14 114//14 
f 32//14 66//14 68//14 
f 68//14 29//14 32//14 
f 12//14 119//14 120//14 
f 119//14 121//14 122//14 
f 121//14 123//14 124//14 
f 13//14 120//14 8//14 
f 120//14 122//14 3//14 
f 122//14 124//14 6//14 
f 125//14 7//14 9//14 
f 9//14 124//14 125//14 
f 69//14 33//14 35//14 
f 118//14 32//14 70//14 
f 33//14 69//14 70//14 
f 70//14 32//14 33//14 
f 126//14 117//14 71//14 
f 118//14 72//14 71//14 
f 71//14 117//14 118//14 
f 126//14 73//14 74//14 
f 5//14 7//14 75//14 
f 125//14 74//14 75//14 
f 75//14 7//14 125//14 
f 35//14 11//14 76//14 
f 5//14 77//14 76//14 
f 76//14 11//14 5//14 
f 109//14 23//14 78//14 
f 23//14 26//14 79//14 
f 79//14 78//14 23//14 
f 30//14 80//14 79//14 
f 79//14 26//14 30//14 
f 114//14 81//14 82//14 
f 109//14 83//14 81//14 
f 30//14 29//14 82//14 
f 81//14 114//14 109//14 
f 82//14 29//14 114//14 
f 123//14 116//14 84//14 
f 116//14 117//14 85//14 
f 85//14 84//14 116//14 
f 126//14 86//14 85//14 
f 85//14 117//14 126//14 
f 124//14 87//14 88//14 
f 123//14 89//14 87//14 
f 126//14 125//14 88//14 
f 87//14 124//14 123//14 
f 88//14 125//14 124//14 
f 127//14 115//14 90//14 
f 115//14 110//14 91//14 
f 91//14 90//14 115//14 
f 111//14 92//14 91//14 
f 91//14 110//14 111//14 
f 111//14 112//14 93//14 
f 116//14 94//14 93//14 
f 93//14 112//14 116//14 
f 127//14 95//14 94//14 
f 94//14 116//14 127//14 
f 115//14 127//14 96//14 
f 119//14 12//14 97//14 
f 12//14 14//14 98//14 
f 98//14 97//14 12//14 
f 115//14 99//14 98//14 
f 98//14 14//14 115//14 
f 100//14 101//14 121//14 
f 127//14 116//14 102//14 
f 123//14 103//14 102//14 
f 102//14 116//14 123//14 
f 121//14 101//14 103//14 
f 103//14 123//14 121//14 
f 102//14 96//14 127//14 
f 121//14 119//14 100//14 
f 97//14 100//14 119//14 
f 96//14 99//14 115//14 
f 93//14 92//14 111//14 
f 90//14 95//14 127//14 
f 88//14 86//14 126//14 
f 84//14 89//14 123//14 
f 82//14 80//14 30//14 
f 78//14 83//14 109//14 
f 76//14 104//14 35//14 
f 75//14 77//14 5//14 
f 74//14 125//14 126//14 
f 71//14 73//14 126//14 
f 70//14 72//14 118//14 
f 35//14 104//14 69//14 
f 9//14 6//14 124//14 
f 6//14 3//14 122//14 
f 3//14 8//14 120//14 
f 8//14 10//14 13//14 
f 124//14 122//14 121//14 
f 122//14 120//14 119//14 
f 120//14 13//14 12//14 
f 66//14 32//14 118//14 
f 118//14 117//14 113//14 
f 62//14 117//14 116//14 
f 115//14 14//14 16//14 
f 114//14 113//14 108//14 
f 113//14 112//14 107//14 
f 112//14 111//14 106//14 
f 111//14 110//14 105//14 
f 110//14 16//14 17//14 
f 109//14 108//14 24//14 
f 58//14 108//14 107//14 
f 54//14 107//14 106//14 
f 106//14 105//14 20//14 
f 105//14 17//14 18//14 
usemtl 0.000000_0.000000_0.000000_0.000000_0.000000
o mesh15
f 128//15 129//15 96//15 
f 129//15 99//15 96//15 
f 129//15 98//15 99//15 
f 96//15 102//15 128//15 
o mesh16
f 128//16 102//16 103//16 
f 103//16 130//16 128//16 
o mesh17
f 131//17 101//17 100//17 
f 130//17 103//17 101//17 
f 101//17 131//17 130//17 
f 100//17 97//17 131//17 
o mesh18
f 131//18 97//18 98//18 
f 98//18 129//18 131//18 
o mesh19
f 131//19 129//19 128//19 
f 128//19 130//19 131//19 
o mesh20
f 132//20 133//20 92//20 
f 133//20 91//20 92//20 
f 92//20 93//20 132//20 
o mesh21
f 132//21 93//21 94//21 
f 94//21 134//21 132//21 
o mesh22
f 134//22 94//22 95//22 
f 95//22 135//22 134//22 
f 95//22 90//22 135//22 
o mesh23
f 135//23 90//23 91//23 
f 91//23 133//23 135//23 
o mesh24
f 135//24 133//24 132//24 
f 132//24 134//24 135//24 
o mesh25
f 136//25 59//25 60//25 
f 60//25 137//25 136//25 
o mesh26
f 137//26 60//26 58//26 
f 58//26 138//26 137//26 
o mesh27
f 138//27 58//27 57//27 
f 57//27 139//27 138//27 
o mesh28
f 139//28 57//28 59//28 
f 59//28 136//28 139//28 
o mesh29
f 139//29 136//29 137//29 
f 137//29 138//29 139//29 
o mesh30
f 140//30 84//30 85//30 
f 85//30 141//30 140//30 
o mesh31
f 141//31 85//31 86//31 
f 86//31 142//31 141//31 
f 86//31 88//31 142//31 
o mesh32
f 142//32 88//32 87//32 
f 87//32 143//32 142//32 
o mesh33
f 140//33 143//33 89//33 
f 143//33 87//33 89//33 
f 89//33 84//33 140//33 
o mesh34
f 143//34 140//34 141//34 
f 141//34 142//34 143//34 
o mesh35
f 144//35 63//35 64//35 
f 64//35 145//35 144//35 
o mesh36
f 145//36 64//36 62//36 
f 62//36 146//36 145//36 
o mesh37
f 146//37 62//37 61//37 
f 61//37 147//37 146//37 
o mesh38
f 147//38 61//38 63//38 
f 63//38 144//38 147//38 
o mesh39
f 147//39 144//39 145//39 
f 145//39 146//39 147//39 
o mesh40
f 148//40 55//40 56//40 
f 56//40 149//40 148//40 
o mesh41
f 149//41 56//41 54//41 
f 54//41 150//41 149//41 
o mesh42
f 150//42 54//42 53//42 
f 53//42 151//42 150//42 
o mesh43
f 151//43 53//43 55//43 
f 55//43 148//43 151//43 
o mesh44
f 151//44 148//44 149//44 
f 149//44 150//44 151//44 
o mesh45
f 152//45 78//45 79//45 
f 79//45 153//45 152//45 
o mesh46
f 153//46 79//46 80//46 
f 80//46 154//46 153//46 
f 80//46 82//46 154//46 
o mesh47
f 154//47 82//47 81//47 
f 81//47 155//47 154//47 
o mesh48
f 152//48 155//48 83//48 
f 155//48 81//48 83//48 
f 83//48 78//48 152//48 
o mesh49
f 155//49 152//49 153//49 
f 153//49 154//49 155//49 
o mesh50
f 156//50 67//50 68//50 
f 68//50 157//50 156//50 
o mesh51
f 157//51 68//51 66//51 
f 66//51 158//51 157//51 
o mesh52
f 158//52 66//52 65//52 
f 65//52 159//52 158//52 
o mesh53
f 159//53 65//53 67//53 
f 67//53 156//53 159//53 
o mesh54
f 159//54 156//54 157//54 
f 157//54 158//54 159//54 
o mesh55
f 160//55 161//55 72//55 
f 161//55 71//55 72//55 
f 72//55 70//55 160//55 
o mesh56
f 162//56 69//56 104//56 
f 160//56 70//56 69//56 
f 69//56 162//56 160//56 
f 104//56 76//56 162//56 
o mesh57
f 162//57 76//57 77//57 
f 77//57 163//57 162//57 
f 77//57 75//57 163//57 
o mesh58
f 161//58 163//58 73//58 
f 163//58 74//58 73//58 
f 163//58 75//58 74//58 
f 73//58 71//58 161//58 
o mesh59
f 163//59 161//59 160//59 
f 160//59 162//59 163//59 
